# xmcd
#
# Track frame offsets:
#	150
#	15893
#	32126
#
# Disc length: 650 seconds
#
# Revision: 1
# Processed by: cddbd v1.5.2PL0 Copyright (c) Steve Scherf et al.
# Submitted via: EZCDAudioConverter 7.1.5.1
#
DISCID=14028803
DTITLE=LoveLyz - Lovelinus (1St Single Album)
DYEAR=2015
DGENRE=K-Pop
TTITLE0=그대에게
TTITLE1=Circle
TTITLE2=Bebe
EXTD=
EXTT0=
EXTT1=
EXTT2=
PLAYORDER=
